{
  "accessors": [
    {
      "bufferView": 2,
      "componentType": 5126,
      "count": 65532,
      "max": [
        0.15137091279029846,
        0.03297463059425354,
        0.05574096366763115
      ],
      "min": [
        -0.13381075859069824,
        -0.022046290338039398,
        -0.0805785208940506
      ],
      "type": "VEC3"
    },
    {
      "bufferView": 2,
      "byteOffset": 786384,
      "componentType": 5126,
      "count": 65532,
      "max": [
        1.0,
        1.0,
        1.0
      ],
      "min": [
        -1.0,
        -1.0,
        -1.0
      ],
      "type": "VEC3"
    },
    {
      "bufferView": 3,
      "componentType": 5126,
      "count": 65532,
      "max": [
        1.0,
        1.0,
        1.0,
        1.0
      ],
      "min": [
        -1.0,
        -1.0,
        -1.0,
        -1.0
      ],
      "type": "VEC4"
    },
    {
      "bufferView": 1,
      "componentType": 5126,
      "count": 65532,
      "max": [
        0.995144784450531,
        0.9969316124916077
      ],
      "min": [
        0.001953125,
        0.001953125
      ],
      "type": "VEC2"
    },
    {
      "bufferView": 1,
      "byteOffset": 524256,
      "componentType": 5126,
      "count": 65532,
      "max": [
        0.995144784450531,
        0.9969316124916077
      ],
      "min": [
        0.001953125,
        0.001953125
      ],
      "type": "VEC2"
    },
    {
      "bufferView": 1,
      "byteOffset": 1048512,
      "componentType": 5126,
      "count": 65532,
      "max": [
        0.995144784450531,
        0.9969316124916077
      ],
      "min": [
        0.001953125,
        0.001953125
      ],
      "type": "VEC2"
    },
    {
      "bufferView": 1,
      "byteOffset": 1572768,
      "componentType": 5126,
      "count": 65532,
      "max": [
        0.995144784450531,
        0.9969316124916077
      ],
      "min": [
        0.001953125,
        0.001953125
      ],
      "type": "VEC2"
    },
    {
      "bufferView": 0,
      "componentType": 5125,
      "count": 265749,
      "type": "SCALAR"
    },
    {
      "bufferView": 2,
      "byteOffset": 1572768,
      "componentType": 5126,
      "count": 35802,
      "max": [
        0.14970643818378448,
        0.03241666406393051,
        0.05572747811675072
      ],
      "min": [
        -0.13381075859069824,
        -0.022046290338039398,
        -0.0803055465221405
      ],
      "type": "VEC3"
    },
    {
      "bufferView": 2,
      "byteOffset": 2002392,
      "componentType": 5126,
      "count": 35802,
      "max": [
        1.0,
        1.0,
        1.0
      ],
      "min": [
        -1.0,
        -1.0,
        -1.0
      ],
      "type": "VEC3"
    },
    {
      "bufferView": 3,
      "byteOffset": 1048512,
      "componentType": 5126,
      "count": 35802,
      "max": [
        1.0,
        1.0,
        1.0,
        1.0
      ],
      "min": [
        -1.0,
        -1.0,
        -1.0,
        -1.0
      ],
      "type": "VEC4"
    },
    {
      "bufferView": 1,
      "byteOffset": 2097024,
      "componentType": 5126,
      "count": 35802,
      "max": [
        0.997497022151947,
        0.998046875
      ],
      "min": [
        0.001953125,
        0.001953125
      ],
      "type": "VEC2"
    },
    {
      "bufferView": 1,
      "byteOffset": 2383440,
      "componentType": 5126,
      "count": 35802,
      "max": [
        0.997497022151947,
        0.998046875
      ],
      "min": [
        0.001953125,
        0.001953125
      ],
      "type": "VEC2"
    },
    {
      "bufferView": 1,
      "byteOffset": 2669856,
      "componentType": 5126,
      "count": 35802,
      "max": [
        0.997497022151947,
        0.998046875
      ],
      "min": [
        0.001953125,
        0.001953125
      ],
      "type": "VEC2"
    },
    {
      "bufferView": 1,
      "byteOffset": 2956272,
      "componentType": 5126,
      "count": 35802,
      "max": [
        0.997497022151947,
        0.998046875
      ],
      "min": [
        0.001953125,
        0.001953125
      ],
      "type": "VEC2"
    },
    {
      "bufferView": 0,
      "byteOffset": 1062996,
      "componentType": 5125,
      "count": 104778,
      "type": "SCALAR"
    }
  ],
  "asset": {
    "extras": {
      "author": "portalRTXassets (https://sketchfab.com/portalRTXassets)",
      "license": "CC-BY-4.0 (http://creativecommons.org/licenses/by/4.0/)",
      "source": "https://sketchfab.com/3d-models/portal-rtx-nvidia-geforce-rtx-4090-55be56ba276d4242ab683f1fc922392a",
      "title": "Portal RTX -  Nvidia Geforce RTX 4090"
    },
    "generator": "Sketchfab-14.70.0",
    "version": "2.0"
  },
  "bufferViews": [
    {
      "buffer": 0,
      "byteLength": 1482108,
      "name": "floatBufferViews",
      "target": 34963
    },
    {
      "buffer": 0,
      "byteLength": 3242688,
      "byteOffset": 1482108,
      "byteStride": 8,
      "name": "floatBufferViews",
      "target": 34962
    },
    {
      "buffer": 0,
      "byteLength": 2432016,
      "byteOffset": 4724796,
      "byteStride": 12,
      "name": "floatBufferViews",
      "target": 34962
    },
    {
      "buffer": 0,
      "byteLength": 1621344,
      "byteOffset": 7156812,
      "byteStride": 16,
      "name": "floatBufferViews",
      "target": 34962
    }
  ],
  "buffers": [
    {
      "byteLength": 8778156,
      "uri": "scene.bin"
    }
  ],
  "images": [
    {
      "uri": "textures/M_Prop_RTX4090_A1_01_baseColor.png"
    },
    {
      "uri": "textures/M_Prop_RTX4090_A1_01_metallicRoughness.png"
    },
    {
      "uri": "textures/M_Prop_RTX4090_A1_01_normal.png"
    }
  ],
  "materials": [
    {
      "doubleSided": true,
      "name": "M_Prop_RTX4090_A1_01",
      "normalTexture": {
        "index": 2,
        "texCoord": 2
      },
      "pbrMetallicRoughness": {
        "baseColorTexture": {
          "index": 0
        },
        "metallicRoughnessTexture": {
          "index": 1,
          "texCoord": 1
        }
      }
    }
  ],
  "meshes": [
    {
      "name": "Object_0",
      "primitives": [
        {
          "attributes": {
            "NORMAL": 1,
            "POSITION": 0,
            "TANGENT": 2,
            "TEXCOORD_0": 3,
            "TEXCOORD_1": 4,
            "TEXCOORD_2": 5,
            "TEXCOORD_3": 6
          },
          "indices": 7,
          "material": 0,
          "mode": 4
        }
      ]
    },
    {
      "name": "Object_1",
      "primitives": [
        {
          "attributes": {
            "NORMAL": 9,
            "POSITION": 8,
            "TANGENT": 10,
            "TEXCOORD_0": 11,
            "TEXCOORD_1": 12,
            "TEXCOORD_2": 13,
            "TEXCOORD_3": 14
          },
          "indices": 15,
          "material": 0,
          "mode": 4
        }
      ]
    }
  ],
  "nodes": [
    {
      "children": [
        1
      ],
      "matrix": [
        1.0,
        0.0,
        0.0,
        0.0,
        0.0,
        2.220446049250313e-16,
        -1.0,
        0.0,
        0.0,
        1.0,
        2.220446049250313e-16,
        0.0,
        0.0,
        0.0,
        0.0,
        1.0
      ],
      "name": "Sketchfab_model"
    },
    {
      "children": [
        2
      ],
      "name": "root"
    },
    {
      "children": [
        3
      ],
      "matrix": [
        1.0,
        0.0,
        0.0,
        0.0,
        0.0,
        2.220446049250313e-16,
        1.0,
        0.0,
        0.0,
        -1.0,
        2.220446049250313e-16,
        0.0,
        0.0,
        0.0,
        0.0,
        1.0
      ],
      "name": "GLTF_SceneRootNode"
    },
    {
      "children": [
        4,
        5
      ],
      "name": "RTX4090_0"
    },
    {
      "mesh": 0,
      "name": "Object_4"
    },
    {
      "mesh": 1,
      "name": "Object_5"
    }
  ],
  "samplers": [
    {
      "magFilter": 9729,
      "minFilter": 9987,
      "wrapS": 10497,
      "wrapT": 10497
    }
  ],
  "scene": 0,
  "scenes": [
    {
      "name": "Sketchfab_Scene",
      "nodes": [
        0
      ]
    }
  ],
  "textures": [
    {
      "sampler": 0,
      "source": 0
    },
    {
      "sampler": 0,
      "source": 1
    },
    {
      "sampler": 0,
      "source": 2
    }
  ]
}
